{"title":"Loft.2010.DVDRip.XviD-EXViD","uid":6377119,"size":1530687260,"categoryP":"video","categoryS":"movies","magnet":"?xt=urn:btih:0e6550cdb11d618d71900b19a353b8bb3260d750&amp;dn=Loft.2010.DVDRip.XviD-EXViD&amp;tr=udp%3A%2F%2Ftracker.openbittorrent.com%3A80&amp;tr=udp%3A%2F%2Fopen.demonii.com%3A1337&amp;tr=udp%3A%2F%2Ftracker.coppersurfer.tk%3A6969&amp;tr=udp%3A%2F%2Fexodus.desync.com%3A6969","seeders":0,"leechers":1,"uploader":"sceneline","files":111,"time":1304901035,"description":"- &lt;a href=&quot;\nhttp://www.Speed.Cd&quot; rel=&quot;nofollow&quot; target=&quot;_NEW&quot;&gt;\nhttp://www.Speed.Cd&lt;/a&gt; \n       &lt;a href=&quot;\nhttp://www.Speed.Cd&quot; rel=&quot;nofollow&quot; target=&quot;_NEW&quot;&gt;\nhttp://www.Speed.Cd&lt;/a&gt;       the fast  and The Hottest Private Tracker on the net\n\nPlease Seed back to make the speed Faster!!!\n\nand don't forget to visit      ...... http://www.Speed.Cd..........\n-                                                                                                     \n       \n     \n     \n       \n       \n     \n     \n                                         \n                                         \n                EXVID                    \n                                         \n         \n                                         \n         Filled the Archives             \n                                         \n         \n                                         \n                With:                    \n                                         \n         \n                                         \n                                    \n     E240                           \n                                    \n     SP               (C) 2009      \n                                         \n     \n     \n     \n                                                                                  \n                                                                                   \n                      Loft.2010.DVDRip.XviD-EXViD                                   \n                                                                                   \n                                                                                  \n     \n                                                                                               \nEXViD aims to iNTERNAL those releases which have been lost in the archives.\nEXViD aims to PRE non-internal releases which have poor sources and are likely skipped by others. &lt;a href=&quot;\nhttp://www.imdb.com/title/tt1606789/&quot; rel=&quot;nofollow&quot; target=&quot;_NEW&quot;&gt;\nhttp://www.imdb.com/title/tt1606789/&lt;/a&gt;\nSubtitles: EN, NL HI\nDate: 2011.05\n\nDirector: Antoinette Beumer\n\nGenres:\nComedy | Thriller\n\nPlot:\nFive best friends, all married, decide to share a loft apartment. In this loft they meet their\nmistresses and conquests. Everything seems perfect, until one morning the body of an unknown\nyoung woman is found in the loft. The group of friends begin to suspect each other and it soon\nbecomes clear that they know far less about each other than they had initially thought.\n\nCast:\nCredited cast:\nAnna Drijver \t ... \t Ann Marai \nKim van Kooten \t ... \t Nathalie \nBarry Atsma \t ... \t Matthias \nJeroen van Koningsbrugge \t ... \t Willem \nKatja Herbers \t ... \t Marjolein \nFedja van Hut \t ... \t Bart \nCharlie Dagelet \t ... \t Linda \nHadewych Minis \t ... \t Eva \nLies Visschedijk \t ... \t Annette \nGijs Naber \t ... \t Tom \nSallie Harmsen \t ... \t Sarah \nJamie Grant \t ... \t Linda \nChico Kenzari \t ... \t Tom \nCarolien Spoor \t ... \t Kimmy \nSabine Soetanto\n\nStats:\nFormat                           : AVI\nFormat/Info                      : Audio Video Interleave\nFile size                        : 1.37 GiB\nDuration                         : 1h 46mn\nOverall bit rate                 : 1 840 Kbps\nWriting application              : VirtualDubMod 1.5.10.2 (build 2540/release)\nWriting library                  : VirtualDubMod build 2540/release\n\nVideo\nID                               : 0\nFormat                           : MPEG-4 Visual\nFormat profile                   : Advanced Simple@L5\nFormat settings, BVOP            : Yes\nFormat settings, QPel            : No\nFormat settings, GMC             : No warppoints\nFormat settings, Matrix          : Default (H.263)\nMuxing mode                      : Packed bitstream\nCodec ID                         : XVID\nCodec ID/Hint                    : XviD\nDuration                         : 1h 46mn\nBit rate                         : 1 382 Kbps\nWidth                            : 640 pixels\nHeight                           : 272 pixels\nDisplay aspect ratio             : 2.35:1\nFrame rate                       : 25.000 fps\nColor space                      : YUV\nChroma subsampling               : 4:2:0\nBit depth                        : 8 bits\nScan type                        : Progressive\nBits/(Pixel*Frame)               : 0.318\nStream size                      : 1.03 GiB (75%)\nWriting library                  : XviD 62\n\nAudio\nID                               : 1\nFormat                           : AC-3\nFormat/Info                      : Audio Coding 3\nMode extension                   : CM (complete main)\nCodec ID                         : 2000\nDuration                         : 1h 46mn\nBit rate mode                    : Constant\nBit rate                         : 448 Kbps\nChannel(s)                       : 6 channels\nChannel positions                : Front: L C R, Side: L R, LFE\nSampling rate                    : 48.0 KHz\nBit depth                        : 16 bits\nStream size                      : 341 MiB (24%)\nAlignment                        : Split accross interleaves\nInterleave, duration             : 40 ms (1.00 video frame)\nInterleave, preload duration     : 500 ms\n\n\n\n\nRelease notes:\nDutch remake of the flemish movie &quot;Loft&quot; we released some time earlier: http://www.imdb.com/title/tt0926762/\n\nEnglish .srt subs included to fit on disc.\n\nenjoy!\n\nLooking for:\n75TB+ Archives\nDUTCH/FLEMiSH Archives\n                                                                                                    \nGreets: CRBS EPiSODE FiCO FLS iLS KLASSiGER LiPSYNC MADE NODLABS RUNNER SPRiNTER      \n   \n\n                                                                    ASCII DONE BY XX^NFO 2oo9","torrent":{"xt":"urn:btih:0e6550cdb11d618d71900b19a353b8bb3260d750","amp;dn":"Loft.2010.DVDRip.XviD-EXViD","amp;tr":["udp%3A%2F%2Ftracker.openbittorrent.com%3A80","udp%3A%2F%2Fopen.demonii.com%3A1337","udp%3A%2F%2Ftracker.coppersurfer.tk%3A6969","udp%3A%2F%2Fexodus.desync.com%3A6969"],"infoHash":"0e6550cdb11d618d71900b19a353b8bb3260d750","infoHashBuffer":{"type":"Buffer","data":[14,101,80,205,177,29,97,141,113,144,11,25,163,83,184,187,50,96,215,80]},"announce":[],"urlList":[]}}